<svg width="30" height="30" viewBox="0 0 30 30" fill="none" xmlns="http://www.w3.org/2000/svg">
<path d="M23.75 30H6.25C4.59301 29.998 3.00445 29.3389 1.83277 28.1672C0.661102 26.9956 0.00198482 25.407 0 23.75L0 6.25C0.00198482 4.59301 0.661102 3.00445 1.83277 1.83277C3.00445 0.661102 4.59301 0.00198482 6.25 0L23.75 0C25.407 0.00198482 26.9956 0.661102 28.1672 1.83277C29.3389 3.00445 29.998 4.59301 30 6.25V23.75C29.998 25.407 29.3389 26.9956 28.1672 28.1672C26.9956 29.3389 25.407 29.998 23.75 30V30ZM6.25 2.5C5.25544 2.5 4.30161 2.89509 3.59835 3.59835C2.89509 4.30161 2.5 5.25544 2.5 6.25V23.75C2.5 24.7446 2.89509 25.6984 3.59835 26.4017C4.30161 27.1049 5.25544 27.5 6.25 27.5H23.75C24.7446 27.5 25.6984 27.1049 26.4017 26.4017C27.1049 25.6984 27.5 24.7446 27.5 23.75V6.25C27.5 5.25544 27.1049 4.30161 26.4017 3.59835C25.6984 2.89509 24.7446 2.5 23.75 2.5H6.25ZM13.75 15C13.75 15.2472 13.8233 15.4889 13.9607 15.6945C14.098 15.9 14.2932 16.0602 14.5216 16.1548C14.7501 16.2495 15.0014 16.2742 15.2439 16.226C15.4863 16.1778 15.7091 16.0587 15.8839 15.8839C16.0587 15.7091 16.1778 15.4863 16.226 15.2439C16.2742 15.0014 16.2495 14.7501 16.1548 14.5216C16.0602 14.2932 15.9 14.098 15.6945 13.9607C15.4889 13.8233 15.2472 13.75 15 13.75C14.6685 13.75 14.3505 13.8817 14.1161 14.1161C13.8817 14.3505 13.75 14.6685 13.75 15ZM7.5 8.75C7.5 8.99723 7.57331 9.2389 7.71066 9.44446C7.84801 9.65002 8.04324 9.81024 8.27165 9.90485C8.50005 9.99946 8.75139 10.0242 8.99386 9.97598C9.23634 9.92775 9.45907 9.8087 9.63388 9.63388C9.8087 9.45907 9.92775 9.23634 9.97598 8.99386C10.0242 8.75139 9.99946 8.50005 9.90485 8.27165C9.81024 8.04324 9.65002 7.84801 9.44446 7.71066C9.2389 7.57331 8.99723 7.5 8.75 7.5C8.41848 7.5 8.10054 7.6317 7.86612 7.86612C7.6317 8.10054 7.5 8.41848 7.5 8.75ZM20 8.75C20 8.99723 20.0733 9.2389 20.2107 9.44446C20.348 9.65002 20.5432 9.81024 20.7716 9.90485C21.0001 9.99946 21.2514 10.0242 21.4939 9.97598C21.7363 9.92775 21.9591 9.8087 22.1339 9.63388C22.3087 9.45907 22.4278 9.23634 22.476 8.99386C22.5242 8.75139 22.4995 8.50005 22.4048 8.27165C22.3102 8.04324 22.15 7.84801 21.9445 7.71066C21.7389 7.57331 21.4972 7.5 21.25 7.5C20.9185 7.5 20.6005 7.6317 20.3661 7.86612C20.1317 8.10054 20 8.41848 20 8.75ZM7.5 21.25C7.5 21.4972 7.57331 21.7389 7.71066 21.9445C7.84801 22.15 8.04324 22.3102 8.27165 22.4048C8.50005 22.4995 8.75139 22.5242 8.99386 22.476C9.23634 22.4278 9.45907 22.3087 9.63388 22.1339C9.8087 21.9591 9.92775 21.7363 9.97598 21.4939C10.0242 21.2514 9.99946 21.0001 9.90485 20.7716C9.81024 20.5432 9.65002 20.348 9.44446 20.2107C9.2389 20.0733 8.99723 20 8.75 20C8.41848 20 8.10054 20.1317 7.86612 20.3661C7.6317 20.6005 7.5 20.9185 7.5 21.25ZM20 21.25C20 21.4972 20.0733 21.7389 20.2107 21.9445C20.348 22.15 20.5432 22.3102 20.7716 22.4048C21.0001 22.4995 21.2514 22.5242 21.4939 22.476C21.7363 22.4278 21.9591 22.3087 22.1339 22.1339C22.3087 21.9591 22.4278 21.7363 22.476 21.4939C22.5242 21.2514 22.4995 21.0001 22.4048 20.7716C22.3102 20.5432 22.15 20.348 21.9445 20.2107C21.7389 20.0733 21.4972 20 21.25 20C20.9185 20 20.6005 20.1317 20.3661 20.3661C20.1317 20.6005 20 20.9185 20 21.25Z" fill="#1769FF"/>
</svg>
